<?xml version="1.0" encoding="UTF-8"?><svg id="Layer_2" xmlns="http://www.w3.org/2000/svg" viewBox="0 0 67.87 64.69"><defs><style>.cls-1{fill:#231f20;}</style></defs><g id="Layer_1-2"><g><path class="cls-1" d="M64.11,43.96c1.39-3.61,2.17-7.52,2.17-11.62C66.28,14.51,51.77,0,33.93,0S1.59,14.51,1.59,32.35c0,4.09,.77,8.01,2.17,11.62-2.16,.64-3.75,2.63-3.75,4.99,0,2.88,2.35,5.23,5.23,5.23h4.88c5.92,6.45,14.4,10.51,23.82,10.51s17.9-4.06,23.82-10.51h4.88c2.88,0,5.23-2.35,5.23-5.23,0-2.37-1.59-4.35-3.75-4.99ZM2.59,32.35C2.59,15.06,16.65,1,33.93,1s31.35,14.06,31.35,31.35c0,4.03-.78,7.88-2.17,11.43-.16-.01-.31-.05-.48-.05h-.71c1.44-3.52,2.24-7.35,2.24-11.38,0-16.67-13.56-30.23-30.23-30.23S3.7,15.68,3.7,32.35c0,4.03,.8,7.86,2.24,11.38h-.71c-.16,0-.32,.03-.48,.05-1.39-3.54-2.17-7.39-2.17-11.43Zm31.35,31.35c-8.8,0-16.75-3.65-22.45-9.51h1.58c5.43,5.19,12.78,8.39,20.87,8.39s15.44-3.2,20.87-8.39h1.58c-5.7,5.86-13.65,9.51-22.45,9.51Zm28.7-10.51h-22.97l.71,1h12.96c-5.16,4.59-11.96,7.39-19.4,7.39s-14.23-2.8-19.4-7.39h14l.74-1H5.23c-2.33,0-4.23-1.9-4.23-4.23,0-1.95,1.33-3.57,3.12-4.06h0c.15-.04,.31-.07,.46-.1,.18-.03,.37-.05,.56-.06h0s.06,0,.09,0H24.88c-.11-.32-.17-.66-.21-1H7.02c-1.49-3.5-2.32-7.34-2.32-11.38C4.7,16.23,17.82,3.12,33.93,3.12s29.23,13.11,29.23,29.23c0,4.04-.83,7.88-2.32,11.38h-16.07c-.08,.34-.19,.67-.33,1h18.19s.06,0,.09,0h0c.19,0,.38,.03,.56,.06,.16,.03,.31,.06,.46,.1h0c1.79,.49,3.12,2.12,3.12,4.06,0,2.33-1.9,4.23-4.23,4.23Z"/><path class="cls-1" d="M20.58,22.45c.1-.1,.16-.23,.18-.4v-4.03h5.42v4.03c0,.15,.05,.29,.16,.4,.11,.11,.24,.16,.4,.16s.29-.05,.39-.15c.11-.1,.17-.23,.18-.4V13.15c0-.16-.05-.3-.15-.4h0c-.2-.2-.57-.21-.8,0-.11,.11-.17,.24-.17,.4v3.81h-5.42v-3.81c0-.16-.05-.29-.16-.4-.22-.22-.59-.21-.8,0-.11,.1-.17,.24-.17,.41v8.9c0,.16,.05,.3,.16,.4,.2,.2,.58,.22,.8,0Z"/><path class="cls-1" d="M28.94,22.63c.16,0,.37-.06,.49-.36l1-2.48h4.37l1.02,2.48c.05,.1,.11,.19,.2,.25,.09,.07,.2,.1,.32,.1,.14,0,.27-.05,.38-.14,.11-.1,.17-.23,.17-.39,0-.05,0-.11-.04-.21l-3.67-8.98c-.05-.1-.11-.19-.2-.25-.09-.07-.2-.1-.32-.1-.26,0-.44,.12-.53,.36l-3.69,9.02s-.02,.1-.02,.17v.05c.01,.14,.06,.26,.15,.34,.09,.09,.22,.13,.38,.13Zm3.66-8.22l1.77,4.32h-3.51l1.74-4.32Z"/><path class="cls-1" d="M38.83,22.61c.15,0,.29-.05,.4-.16h0c.1-.1,.16-.23,.18-.4V13.15c0-.16-.05-.29-.16-.4-.22-.22-.59-.21-.8,0-.11,.1-.17,.24-.17,.41v8.9c0,.16,.05,.3,.16,.4,.1,.1,.24,.16,.4,.16Z"/><path class="cls-1" d="M41.86,22.61c.16,0,.29-.05,.38-.16,.1-.1,.15-.23,.15-.39v-3.63h2.97c.47,0,.89,.13,1.22,.37,.33,.24,.49,.67,.49,1.27,0,.76,.08,1.3,.25,1.66,.17,.36,.4,.62,.68,.78,.15,.09,.38,.1,.57,0,.08-.05,.15-.12,.2-.21,.05-.09,.07-.17,.07-.24,0-.13-.05-.31-.27-.46-.13-.08-.23-.22-.29-.42-.07-.22-.1-.62-.11-1.18,0-.56-.15-1.05-.43-1.44-.21-.31-.48-.55-.79-.72,.4-.19,.74-.48,1.01-.87,.33-.47,.49-1.02,.49-1.64,0-.52-.12-1-.37-1.42-.25-.42-.59-.75-1.03-.99-.43-.24-.93-.36-1.48-.36h-3.77c-.15,0-.28,.05-.39,.16-.1,.1-.16,.23-.16,.39v8.93c0,.16,.06,.29,.18,.4,.12,.1,.26,.15,.42,.15Zm.53-8.95h3.11c.54,0,.98,.16,1.32,.49,.34,.33,.5,.73,.5,1.23,0,.39-.08,.73-.24,1.03-.16,.3-.37,.53-.63,.71-.26,.17-.54,.27-.84,.3h-3.22v-3.76Z"/><path class="cls-1" d="M16.02,30.53c-.42-.21-.98-.41-1.64-.61-.75-.24-1.33-.5-1.72-.78-.38-.27-.56-.64-.56-1.14s.19-.85,.59-1.13c.4-.29,.94-.43,1.59-.43,.44,0,.86,.09,1.26,.27,.4,.18,.72,.41,.97,.7,.19,.19,.5,.17,.72-.03,.12-.11,.18-.24,.18-.38s-.08-.3-.24-.49c-.31-.37-.73-.66-1.24-.85-.51-.2-1.06-.29-1.64-.29-.64,0-1.21,.11-1.71,.34-.5,.23-.89,.54-1.17,.94-.28,.4-.42,.87-.42,1.38,0,.57,.13,1.05,.4,1.43,.26,.37,.61,.67,1.03,.9,.41,.22,.92,.42,1.52,.6,.54,.17,.99,.35,1.34,.51,.33,.16,.61,.37,.81,.62,.2,.24,.3,.55,.3,.92,0,.47-.2,.85-.61,1.14-.42,.3-.95,.45-1.59,.45-1.05,0-1.93-.39-2.63-1.16-.24-.23-.56-.23-.79,0-.11,.12-.17,.25-.17,.39,0,.17,.07,.31,.21,.42,.49,.48,1.01,.84,1.54,1.07,.53,.23,1.15,.35,1.83,.35,.64,0,1.22-.12,1.72-.35,.51-.23,.91-.55,1.19-.96,.29-.41,.44-.87,.44-1.36,0-.64-.14-1.16-.42-1.56-.28-.39-.64-.7-1.07-.91Z"/><path class="cls-1" d="M25.59,26.42c.11-.09,.16-.22,.16-.38s-.05-.28-.16-.38h0c-.1-.1-.23-.15-.39-.15h-6.64c-.15,0-.28,.05-.39,.15-.1,.1-.16,.22-.16,.37,0,.16,.05,.29,.16,.38,.1,.1,.23,.15,.39,.15h2.76v8.43c0,.15,.05,.29,.15,.39,.1,.1,.24,.16,.4,.16,.15,0,.29-.05,.39-.15,.11-.1,.17-.23,.17-.39v-8.43h2.76c.15,0,.28-.05,.38-.14Z"/><path class="cls-1" d="M27.15,31.83c0,.7,.17,1.35,.51,1.93,.33,.58,.8,1.05,1.37,1.39,.57,.34,1.22,.51,1.92,.51s1.33-.17,1.9-.51c.57-.33,1.04-.8,1.37-1.39,.33-.58,.5-1.23,.5-1.93v-5.78c0-.15-.05-.29-.15-.39h0c-.21-.21-.58-.21-.77,0-.1,.1-.14,.23-.14,.39v5.78c0,.5-.12,.96-.37,1.37-.24,.42-.58,.75-.99,1-.41,.24-.87,.37-1.35,.37s-.93-.12-1.34-.37c-.41-.24-.74-.58-.98-.99-.24-.42-.36-.88-.36-1.38v-5.78c0-.16-.06-.29-.17-.39-.11-.1-.24-.15-.38-.15-.17,0-.31,.05-.42,.16-.1,.1-.16,.23-.16,.39v5.78Z"/><path class="cls-1" d="M44.28,28.02c-.31-.76-.78-1.37-1.41-1.83-.63-.46-1.41-.69-2.33-.69h-3.56c-.15,0-.28,.05-.39,.16-.1,.1-.16,.23-.16,.39v8.93c0,.15,.05,.28,.16,.39,.1,.1,.23,.16,.39,.16h3.56c.92,0,1.7-.23,2.33-.67,.63-.44,1.1-1.05,1.41-1.81,.31-.75,.46-1.6,.46-2.53s-.16-1.74-.46-2.5Zm-1.48,5.36c-.53,.72-1.31,1.07-2.4,1.07h-2.83v-7.87h2.83c.72,0,1.33,.18,1.8,.53,.48,.35,.83,.83,1.05,1.41,.23,.59,.34,1.27,.34,2,0,1.18-.27,2.14-.8,2.86Z"/><path class="cls-1" d="M46.4,25.66c-.11,.1-.17,.24-.17,.41v8.9c0,.16,.05,.3,.16,.4,.1,.1,.24,.16,.4,.16,.15,0,.29-.05,.4-.16h0c.1-.1,.16-.23,.18-.4v-8.9c0-.16-.05-.29-.16-.4-.22-.22-.59-.21-.8,0Z"/><path class="cls-1" d="M49.27,33.16c.41,.78,.98,1.4,1.71,1.84,.72,.44,1.56,.67,2.48,.67s1.76-.22,2.48-.67,1.3-1.06,1.71-1.84c.41-.78,.62-1.67,.62-2.64s-.21-1.88-.62-2.65c-.41-.78-.98-1.4-1.71-1.84-.72-.44-1.56-.66-2.48-.66s-1.75,.22-2.48,.66c-.72,.44-1.3,1.06-1.71,1.84-.41,.78-.61,1.67-.61,2.65s.21,1.86,.61,2.64Zm1-4.75c.31-.61,.74-1.1,1.29-1.44,.55-.34,1.19-.51,1.89-.51s1.35,.17,1.9,.51c.55,.34,.99,.82,1.29,1.44,.31,.62,.47,1.33,.47,2.11s-.16,1.5-.47,2.11c-.31,.61-.74,1.1-1.29,1.44-.55,.34-1.19,.51-1.9,.51s-1.34-.17-1.89-.51c-.55-.34-.99-.82-1.29-1.44-.31-.62-.47-1.33-.47-2.11s.16-1.5,.47-2.11Z"/><path class="cls-1" d="M9.8,46.77c-.32-.22-.71-.34-1.16-.34h-1.72c-.11,0-.2,.04-.27,.11-.07,.07-.11,.17-.11,.27v4.23c0,.11,.04,.2,.11,.27,.07,.08,.17,.11,.27,.11h1.72c.45,0,.84-.11,1.16-.33,.32-.22,.56-.53,.72-.9,.16-.37,.24-.8,.24-1.26s-.08-.88-.24-1.25c-.16-.38-.4-.68-.72-.91Zm-.2,3.43c-.23,.32-.57,.49-1.03,.49h-1.25v-3.51h1.25c.45,0,.8,.17,1.03,.49,.23,.33,.35,.76,.35,1.27s-.12,.94-.35,1.27Z"/><path class="cls-1" d="M14.87,46.66c-.03-.08-.07-.14-.14-.19-.06-.04-.14-.06-.21-.06h0c-.08-.01-.17,0-.23,.05-.06,.04-.12,.11-.15,.19l-1.79,4.34c0,.07-.01,.1-.01,.12,0,.1,.03,.19,.09,.25,.06,.06,.15,.09,.26,.09,.08,0,.15-.02,.21-.06,.06-.04,.11-.11,.13-.18l.42-1.01h2.1l.42,1c.04,.08,.08,.14,.15,.18,.06,.05,.13,.07,.21,.07,.1,0,.18-.04,.25-.1,.07-.07,.11-.16,.11-.27,0-.05,0-.1-.03-.15l-1.78-4.27Zm-1.13,2.8l.74-1.78,.74,1.78h-1.48Z"/><path class="cls-1" d="M21.33,46.41c-.13,0-.24,.06-.32,.18l-1.23,1.76-1.28-1.76c-.08-.12-.19-.17-.31-.17-.1,0-.19,.04-.28,.11-.09,.07-.13,.17-.13,.28,0,.1,.04,.19,.11,.28l1.49,2.01v1.96c0,.11,.04,.2,.11,.27,.07,.08,.17,.11,.27,.11s.19-.04,.26-.11c.07-.07,.11-.17,.11-.27v-1.9l1.5-2.11h0c.05-.08,.07-.16,.07-.24,0-.11-.04-.2-.11-.27-.08-.07-.16-.11-.27-.11Z"/><path class="cls-1" d="M49.34,48.82c-.23-.11-.54-.2-.9-.28-.36-.08-.63-.18-.81-.3-.17-.11-.25-.27-.25-.48,0-.19,.08-.35,.26-.47,.17-.12,.42-.18,.72-.18,.19,0,.39,.04,.6,.12,.21,.08,.37,.18,.49,.3,.05,.05,.12,.07,.19,.07,.1,0,.19-.04,.26-.11,.07-.07,.11-.16,.11-.26,0-.12-.06-.24-.17-.34-.16-.16-.38-.29-.64-.38-.26-.1-.54-.14-.84-.14-.33,0-.63,.06-.89,.17-.26,.11-.47,.28-.62,.5-.15,.21-.23,.47-.23,.75,0,.41,.14,.74,.41,.97,.26,.23,.64,.39,1.13,.49,.4,.09,.7,.2,.89,.33,.19,.12,.28,.3,.28,.52,0,.19-.09,.34-.28,.47-.19,.13-.44,.19-.72,.19-.24,0-.46-.04-.66-.12-.19-.08-.38-.2-.56-.37-.07-.06-.14-.09-.24-.09-.1,0-.19,.04-.27,.12-.07,.08-.11,.17-.11,.26,0,.12,.06,.23,.16,.32,.24,.22,.5,.38,.76,.48,.27,.1,.58,.15,.92,.15,.32,0,.62-.06,.88-.18,.27-.12,.48-.29,.64-.51,.16-.22,.24-.47,.24-.75,0-.32-.07-.58-.2-.78-.13-.2-.32-.35-.56-.47Z"/><path class="cls-1" d="M54.86,46.64h0c-.22-.14-.46-.21-.71-.21h-1.62c-.11,0-.2,.04-.27,.11-.07,.07-.11,.17-.11,.27v4.23c0,.11,.03,.2,.1,.27,.07,.07,.16,.11,.27,.11s.2-.04,.27-.11c.07-.07,.1-.17,.1-.27v-1.5h1.27c.26,0,.5-.07,.71-.21,.22-.14,.39-.33,.52-.57,.13-.24,.19-.5,.19-.79s-.06-.55-.19-.78-.3-.42-.52-.56Zm-.15,1.75c-.06,.13-.14,.23-.24,.31-.1,.08-.2,.11-.32,.11h-1.27v-1.64h1.27c.18,0,.33,.08,.46,.23,.13,.16,.2,.35,.2,.57,0,.15-.03,.29-.09,.41Z"/><path class="cls-1" d="M59.4,46.66c-.03-.08-.07-.14-.14-.19-.06-.04-.14-.06-.21-.06h0c-.08-.01-.17,0-.23,.05-.06,.04-.12,.11-.15,.19l-1.79,4.34c0,.07-.01,.1-.01,.12,0,.1,.03,.19,.09,.25,.06,.06,.15,.09,.26,.09,.08,0,.15-.02,.21-.06,.06-.04,.11-.11,.13-.18l.42-1.01h2.1l.42,1c.04,.08,.08,.14,.15,.18,.06,.05,.13,.07,.21,.07,.1,0,.18-.04,.25-.1,.07-.07,.11-.16,.11-.27,0-.05,0-.1-.03-.15l-1.78-4.27Zm-1.13,2.8l.74-1.78,.74,1.78h-1.48Z"/><path class="cls-1" d="M37.94,41.41c-.89,1.1-1.13,2.48-.73,3.55l-2.66,3.61-2.7-3.8c.46-1,.33-2.25-.43-3.19-1.06-1.31-2.95-1.55-4.2-.53-.03,.03-.06,.06-.09,.09-.14-.26-.35-.54-.66-.75-.55-.38-1.25-.46-2.08-.25-.26,.07-.42,.33-.35,.59,.07,.26,.33,.41,.59,.35,.55-.14,.97-.11,1.28,.1,.35,.24,.48,.65,.53,.86-.15,.32-.25,.66-.28,1.02-.06,.79,.18,1.58,.7,2.21,.51,.63,1.23,1.04,2.02,1.14,.13,.02,.26,.03,.39,.03,.26,0,.51-.04,.76-.11l3.36,3.83-4.3,5.83c-.16,.21-.12,.52,.09,.68,.09,.08,.21,.11,.32,.11,.14,0,.27-.06,.37-.16l4.67-5.16,4.51,5.15c.1,.11,.24,.17,.38,.17,.11,0,.22-.04,.31-.11,.21-.17,.25-.47,.1-.68l-4.13-5.82,3.3-3.65c.2,.04,.4,.07,.6,.07,1.02,0,2.12-.53,2.91-1.5,1.25-1.54,1.24-3.62-.02-4.63-1.25-1.02-3.29-.59-4.54,.94Zm-7.5,3.64c-.4,.33-.92,.47-1.45,.4-.54-.07-1.04-.35-1.39-.79-.35-.44-.53-.98-.48-1.52,.04-.54,.29-1.01,.69-1.34,.35-.28,.76-.42,1.19-.42,.61,0,1.22,.28,1.65,.8,.72,.9,.63,2.18-.21,2.86Zm11.3-.56c-.76,.94-1.88,1.34-2.72,1.04-.04-.02-.08-.03-.12-.04-.12-.05-.23-.12-.33-.2-.16-.13-.27-.29-.37-.46,0-.02-.02-.04-.03-.06-.37-.76-.2-1.86,.52-2.75,.6-.74,1.42-1.14,2.15-1.14,.38,0,.74,.11,1.03,.34,.84,.68,.79,2.15-.12,3.27Z"/></g></g></svg>