<?xml version="1.0" encoding="UTF-8"?><svg id="Layer_2" xmlns="http://www.w3.org/2000/svg" viewBox="0 0 1019.32 53.37"><defs><style>.cls-1,.cls-2{stroke-width:.75px;}.cls-1,.cls-2,.cls-3{fill:none;stroke:#231f20;}.cls-1,.cls-3{stroke-linecap:round;stroke-linejoin:round;}.cls-2{stroke-miterlimit:10;}.cls-3{stroke-width:.5px;}</style></defs><g id="Layer_1-2"><g><rect class="cls-1" x="294.05" y="11.62" width="5.14" height="3.87"/><rect class="cls-1" x="294.05" y="9.94" width="5.14" height="1.68"/><rect class="cls-1" x="300.91" y="11.62" width="5.14" height="3.87"/><rect class="cls-1" x="300.91" y="9.94" width="5.14" height="1.68"/><rect class="cls-1" x="307.77" y="11.62" width="5.14" height="3.87"/><rect class="cls-1" x="307.77" y="9.94" width="5.14" height="1.68"/><rect class="cls-1" x="314.63" y="11.62" width="5.14" height="3.87"/><rect class="cls-1" x="314.63" y="9.94" width="5.14" height="1.68"/><rect class="cls-1" x="321.49" y="11.62" width="5.14" height="3.87"/><rect class="cls-1" x="321.49" y="9.94" width="5.14" height="1.68"/></g><rect class="cls-1" x="348.03" y="15.49" width="36.94" height="3.87"/><rect class="cls-1" x="285.47" y="30.94" width="162.08" height="2.92"/><g><path class="cls-1" d="m351.12,7.6h1.54c.68,0,1.23.55,1.23,1.23v6.67h-3.99v-6.67c0-.68.55-1.23,1.23-1.23Z"/><rect class="cls-1" x="350.67" y="5.82" width="2.45" height="1.78"/><path class="cls-1" d="m356.97,7.6h1.54c.68,0,1.23.55,1.23,1.23v6.67h-3.99v-6.67c0-.68.55-1.23,1.23-1.23Z"/><rect class="cls-1" x="356.51" y="5.82" width="2.45" height="1.78"/><path class="cls-1" d="m362.81,7.6h1.54c.68,0,1.23.55,1.23,1.23v6.67h-3.99v-6.67c0-.68.55-1.23,1.23-1.23Z"/><rect class="cls-1" x="362.36" y="5.82" width="2.45" height="1.78"/><path class="cls-1" d="m368.66,7.6h1.54c.68,0,1.23.55,1.23,1.23v6.67h-3.99v-6.67c0-.68.55-1.23,1.23-1.23Z"/><rect class="cls-1" x="368.2" y="5.82" width="2.45" height="1.78"/><path class="cls-1" d="m374.5,7.6h1.54c.68,0,1.23.55,1.23,1.23v6.67h-3.99v-6.67c0-.68.55-1.23,1.23-1.23Z"/><rect class="cls-1" x="374.05" y="5.82" width="2.45" height="1.78"/><path class="cls-1" d="m380.35,7.6h1.54c.68,0,1.23.55,1.23,1.23v6.67h-3.99v-6.67c0-.68.55-1.23,1.23-1.23Z"/><rect class="cls-1" x="379.89" y="5.82" width="2.45" height="1.78"/></g><g><rect class="cls-1" x="406.28" y="11.62" width="5.14" height="3.87"/><rect class="cls-1" x="406.28" y="9.94" width="5.14" height="1.68"/><rect class="cls-1" x="413.14" y="11.62" width="5.14" height="3.87"/><rect class="cls-1" x="413.14" y="9.94" width="5.14" height="1.68"/><rect class="cls-1" x="420" y="11.62" width="5.14" height="3.87"/><rect class="cls-1" x="420" y="9.94" width="5.14" height="1.68"/><rect class="cls-1" x="426.86" y="11.62" width="5.14" height="3.87"/><rect class="cls-1" x="426.86" y="9.94" width="5.14" height="1.68"/><rect class="cls-1" x="433.72" y="11.62" width="5.14" height="3.87"/><rect class="cls-1" x="433.72" y="9.94" width="5.14" height="1.68"/></g><g><path class="cls-2" d="m214.87,12.35c0-4.33,2.02-7.84,7.01-7.84s7.01,3.51,7.01,7.84"/><path class="cls-2" d="m231.87,52.99h-19.98l.62-1.87c.25-.77.97-1.29,1.78-1.29h15.18c.81,0,1.53.52,1.78,1.29l.62,1.87Z"/><rect class="cls-2" x="212.93" y="42.78" width="17.9" height="2.54" rx=".77" ry=".77"/><path class="cls-2" d="m219.33,18.5h5.1c.83,0,1.5.67,1.5,1.5v.75h-8.1v-.75c0-.83.67-1.5,1.5-1.5Z"/><rect class="cls-2" x="209.45" y="36.71" width="24.86" height="6.06" rx="2.29" ry="2.29"/><rect class="cls-2" x="215.37" y="45.31" width="13.02" height="4.53"/><polyline class="cls-2" points="223.98 16.46 223.98 18.5 219.77 18.5 219.77 16.46"/><g><path class="cls-2" d="m227.52,31.01c0-.71.57-1.28,1.28-1.28h1.88l-.77-5.5c-.28-1.99-1.98-3.47-3.98-3.47h-8.1c-2.01,0-3.71,1.48-3.98,3.47l-.77,5.5h1.97c.71,0,1.28.57,1.28,1.28s-.57,1.28-1.28,1.28h-2.32l-.62,4.43h19.55l-.62-4.43h-2.23c-.71,0-1.28-.57-1.28-1.28Z"/><path class="cls-2" d="m213.07,29.73h-2.26c-.71,0-1.28.57-1.28,1.28s.57,1.28,1.28,1.28h1.9"/><path class="cls-2" d="m231.04,32.29h1.99c.71,0,1.28-.57,1.28-1.28s-.57-1.28-1.28-1.28h-2.35"/></g><ellipse class="cls-2" cx="221.88" cy="12.35" rx="7.01" ry="4.5"/><ellipse class="cls-2" cx="221.82" cy="12.62" rx="5.4" ry="2.84"/><path class="cls-2" d="m176.09,12.35c0-4.33,2.02-7.84,7.01-7.84s7.01,3.51,7.01,7.84"/><path class="cls-2" d="m193.09,52.99h-19.98l.62-1.87c.25-.77.97-1.29,1.78-1.29h15.18c.81,0,1.53.52,1.78,1.29l.62,1.87Z"/><rect class="cls-2" x="174.15" y="42.78" width="17.9" height="2.54" rx=".77" ry=".77"/><path class="cls-2" d="m180.55,18.5h5.1c.83,0,1.5.67,1.5,1.5v.75h-8.1v-.75c0-.83.67-1.5,1.5-1.5Z"/><rect class="cls-2" x="170.67" y="36.71" width="24.86" height="6.06" rx="2.29" ry="2.29"/><rect class="cls-2" x="176.59" y="45.31" width="13.02" height="4.53"/><polyline class="cls-2" points="185.21 16.46 185.21 18.5 180.99 18.5 180.99 16.46"/><g><path class="cls-2" d="m188.75,31.01c0-.71.57-1.28,1.28-1.28h1.88l-.77-5.5c-.28-1.99-1.98-3.47-3.98-3.47h-8.1c-2.01,0-3.71,1.48-3.98,3.47l-.77,5.5h1.97c.71,0,1.28.57,1.28,1.28s-.57,1.28-1.28,1.28h-2.32l-.62,4.43h19.55l-.62-4.43h-2.23c-.71,0-1.28-.57-1.28-1.28Z"/><path class="cls-2" d="m174.3,29.73h-2.26c-.71,0-1.28.57-1.28,1.28s.57,1.28,1.28,1.28h1.9"/><path class="cls-2" d="m192.26,32.29h1.99c.71,0,1.28-.57,1.28-1.28s-.57-1.28-1.28-1.28h-2.35"/></g><ellipse class="cls-2" cx="183.1" cy="12.35" rx="7.01" ry="4.5"/><ellipse class="cls-2" cx="183.05" cy="12.62" rx="5.4" ry="2.84"/><path class="cls-2" d="m137.32,12.35c0-4.33,2.02-7.84,7.01-7.84s7.01,3.51,7.01,7.84"/><path class="cls-2" d="m154.32,52.99h-19.98l.62-1.87c.25-.77.97-1.29,1.78-1.29h15.18c.81,0,1.53.52,1.78,1.29l.62,1.87Z"/><rect class="cls-2" x="135.38" y="42.78" width="17.9" height="2.54" rx=".77" ry=".77"/><path class="cls-2" d="m141.78,18.5h5.1c.83,0,1.5.67,1.5,1.5v.75h-8.1v-.75c0-.83.67-1.5,1.5-1.5Z"/><rect class="cls-2" x="131.9" y="36.71" width="24.86" height="6.06" rx="2.29" ry="2.29"/><rect class="cls-2" x="137.82" y="45.31" width="13.02" height="4.53"/><polyline class="cls-2" points="146.43 16.46 146.43 18.5 142.22 18.5 142.22 16.46"/><g><path class="cls-2" d="m149.97,31.01c0-.71.57-1.28,1.28-1.28h1.88l-.77-5.5c-.28-1.99-1.98-3.47-3.98-3.47h-8.1c-2.01,0-3.71,1.48-3.98,3.47l-.77,5.5h1.97c.71,0,1.28.57,1.28,1.28s-.57,1.28-1.28,1.28h-2.32l-.62,4.43h19.55l-.62-4.43h-2.23c-.71,0-1.28-.57-1.28-1.28Z"/><path class="cls-2" d="m135.52,29.73h-2.26c-.71,0-1.28.57-1.28,1.28s.57,1.28,1.28,1.28h1.9"/><path class="cls-2" d="m153.49,32.29h1.99c.71,0,1.28-.57,1.28-1.28s-.57-1.28-1.28-1.28h-2.35"/></g><ellipse class="cls-2" cx="144.33" cy="12.35" rx="7.01" ry="4.5"/><ellipse class="cls-2" cx="144.27" cy="12.62" rx="5.4" ry="2.84"/></g><rect class="cls-1" x="333.99" y="20.16" width="8.86" height="10.78"/><rect class="cls-1" x="390.16" y="20.16" width="8.86" height="10.78"/><g><rect class="cls-1" x="250.73" y="32.29" width="8.86" height="10.78"/><g><path class="cls-1" d="m254.53,43.07h-4.98v-7.69c0-.41-.33-.74-.74-.74s-.74.33-.74.74v17.62h1.49v-4.31c0-2.28,1.85-4.12,4.12-4.12h.86"/><path class="cls-1" d="m256.01,44.56h.63c2.28,0,4.12,1.85,4.12,4.12v4.31h1.49v-17.62c0-.41-.33-.74-.74-.74s-.74.33-.74.74v7.69h-4.75"/><path class="cls-1" d="m256.01,35.38c0-.41-.33-.74-.74-.74s-.74.33-.74.74v7.69h1.49v-7.69Z"/><rect class="cls-1" x="254.53" y="44.56" width="1.49" height="8.44"/></g><g><path class="cls-3" d="m250.42,29.09c-1.87-1.05-4-.83-4-.83,0,0,.94-.11,2.34,1.46s3.31,2.56,3.31,2.56h3.09"/><path class="cls-3" d="m255.16,32.29s2.43-.66,4.96-2.62,4-2.87,4-2.87c0,0-1.1,1.35-2.51,3.25s-3.17,2.23-3.17,2.23h-3.28Z"/><path class="cls-3" d="m255.85,32.05s-3.58-.35-5.76-1.95-3.67-1.85-3.67-1.85"/><path class="cls-3" d="m251.78,31.03s-3.32-4.46-3.29-7.1c0,0,2.2,5.44,5.65,7.83"/><path class="cls-3" d="m253.09,30.91s-.35-2.82.14-5.33c0,0,.91,1.82,2.07,2.95s1.45,3.15,1.45,3.15"/><path class="cls-3" d="m256.19,29.86s.96-1.68,3.08-2.86,2.45-4.25,2.45-4.25c0,0,.34,3.75-3.67,8.28"/><path class="cls-3" d="m259.7,28.86s3.29-2.37,4.42-2.06"/><path class="cls-3" d="m258.8,27.27s.91-3.86.66-5.82c0,0-2.92,3.31-3.89,5.98"/><path class="cls-3" d="m255.85,29.22s.17-4.63-5.34-7.77c0,0,1.32,1.98,1.43,3.89s1.03,3.39,1.03,3.39"/><path class="cls-3" d="m248.49,23.93s2.35,1.2,3.71,2.96"/><path class="cls-3" d="m253.85,24.21s-.09-1.49.15-2.57.28-2.01.28-2.01c0,0,.43,1.18.77,1.82.44.83.75,1.76.75,1.76"/><path class="cls-3" d="m254.69,25.41s.45-1.26,1.41-2.66,1.19-2.23,1.19-2.23c0,0,.09.64.26,1.52.19,1,0,1.88,0,1.88"/><path class="cls-3" d="m261.72,22.75s-.45.95-1.19,1.47c-1.22.87-1.39,1.37-1.39,1.37"/></g><rect class="cls-1" x="106.39" y="32.29" width="8.86" height="10.78"/><g><path class="cls-1" d="m110.19,43.07h-4.98v-7.69c0-.41-.33-.74-.74-.74s-.74.33-.74.74v17.62h1.49v-4.31c0-2.28,1.85-4.12,4.12-4.12h.86"/><path class="cls-1" d="m111.68,44.56h.63c2.28,0,4.12,1.85,4.12,4.12v4.31h1.49v-17.62c0-.41-.33-.74-.74-.74s-.74.33-.74.74v7.69h-4.75"/><path class="cls-1" d="m111.68,35.38c0-.41-.33-.74-.74-.74s-.74.33-.74.74v7.69h1.49v-7.69Z"/><rect class="cls-1" x="110.19" y="44.56" width="1.49" height="8.44"/></g><g><path class="cls-3" d="m106.08,29.09c-1.87-1.05-4-.83-4-.83,0,0,.94-.11,2.34,1.46s3.31,2.56,3.31,2.56h3.09"/><path class="cls-3" d="m110.82,32.29s2.43-.66,4.96-2.62,4-2.87,4-2.87c0,0-1.1,1.35-2.51,3.25s-3.17,2.23-3.17,2.23h-3.28Z"/><path class="cls-3" d="m111.51,32.05s-3.58-.35-5.76-1.95-3.67-1.85-3.67-1.85"/><path class="cls-3" d="m107.44,31.03s-3.32-4.46-3.29-7.1c0,0,2.2,5.44,5.65,7.83"/><path class="cls-3" d="m108.75,30.91s-.35-2.82.14-5.33c0,0,.91,1.82,2.07,2.95s1.45,3.15,1.45,3.15"/><path class="cls-3" d="m111.85,29.86s.96-1.68,3.08-2.86,2.45-4.25,2.45-4.25c0,0,.34,3.75-3.67,8.28"/><path class="cls-3" d="m115.36,28.86s3.29-2.37,4.42-2.06"/><path class="cls-3" d="m114.46,27.27s.91-3.86.66-5.82c0,0-2.92,3.31-3.89,5.98"/><path class="cls-3" d="m111.51,29.22s.17-4.63-5.34-7.77c0,0,1.32,1.98,1.43,3.89s1.03,3.39,1.03,3.39"/><path class="cls-3" d="m104.15,23.93s2.35,1.2,3.71,2.96"/><path class="cls-3" d="m109.51,24.21s-.09-1.49.15-2.57.28-2.01.28-2.01c0,0,.43,1.18.77,1.82.44.83.75,1.76.75,1.76"/><path class="cls-3" d="m110.35,25.41s.45-1.26,1.41-2.66,1.19-2.23,1.19-2.23c0,0,.09.64.26,1.52.19,1,0,1.88,0,1.88"/><path class="cls-3" d="m117.38,22.75s-.45.95-1.19,1.47c-1.22.87-1.39,1.37-1.39,1.37"/></g></g><rect class="cls-1" x="291.86" y="15.49" width="36.94" height="3.87"/><rect class="cls-1" x="404.15" y="15.49" width="36.94" height="3.87"/><rect class="cls-1" x="287.65" y="33.86" width="26.29" height="19.13"/><rect class="cls-1" x="313.93" y="33.86" width="26.29" height="19.13"/><g><rect class="cls-1" x="303.72" y="36.37" width="7.68" height="1.71"/><rect class="cls-1" x="316.47" y="36.37" width="7.68" height="1.71" transform="translate(640.63 74.45) rotate(-180)"/></g><rect class="cls-1" x="340.22" y="33.86" width="26.29" height="19.13"/><rect class="cls-1" x="366.51" y="33.86" width="26.29" height="19.13"/><g><rect class="cls-1" x="356.29" y="36.37" width="7.68" height="1.71"/><rect class="cls-1" x="369.05" y="36.37" width="7.68" height="1.71" transform="translate(745.77 74.45) rotate(-180)"/></g><rect class="cls-1" x="392.79" y="33.86" width="26.29" height="19.13"/><rect class="cls-1" x="419.08" y="33.86" width="26.29" height="19.13"/><path class="cls-1" d="m498.18,42.02v-18.54c0-.86.69-1.55,1.55-1.55h19.85c.86,0,1.55.69,1.55,1.55v18.54"/><line class="cls-1" x1="542.54" y1="42.02" x2="476.77" y2="42.02"/><g><rect class="cls-1" x="475.24" y="37.41" width="22.95" height="4.62" rx="1.53" ry="1.53"/><rect class="cls-1" x="498.18" y="37.41" width="22.95" height="4.62" rx="1.53" ry="1.53"/><rect class="cls-1" x="521.13" y="37.41" width="22.95" height="4.62" rx="1.53" ry="1.53"/></g><g><rect class="cls-1" x="408.86" y="36.37" width="7.68" height="1.71"/><rect class="cls-1" x="421.62" y="36.37" width="7.68" height="1.71" transform="translate(850.91 74.45) rotate(-180)"/></g><path class="cls-1" d="m472.57,31.18l-.31-1.49c-.11-.53-.58-.91-1.12-.91h-2.31c-.63,0-1.14.51-1.14,1.14v16.47c0,.63.51,1.14,1.14,1.14h81.65c.63,0,1.14-.51,1.14-1.14v-16.47c0-.63-.51-1.14-1.14-1.14h-2.31c-.54,0-1.01.38-1.12.91l-.31,1.49"/><path class="cls-1" d="m498.18,23.48c0-.86-.69-1.55-1.55-1.55h-22.24c-1,0-1.82.81-1.82,1.82v7.43l1.82,8.66c.27,1.27,1.39,2.18,2.69,2.18"/><path class="cls-1" d="m542.22,42.02c1.3,0,2.42-.91,2.69-2.18l1.82-8.66v-7.43c0-1-.81-1.82-1.82-1.82h-22.24c-.86,0-1.55.69-1.55,1.55"/><polygon class="cls-1" points="471.48 47.54 470.34 52.99 471.66 52.99 474.09 47.54 471.48 47.54"/><polygon class="cls-1" points="547.83 47.54 548.98 52.99 547.66 52.99 545.22 47.54 547.83 47.54"/><path class="cls-1" d="m344.61,12.03c0-.61-.49-1.11-1.11-1.11-.02,0-.03,0-.04,0,.19-.33.31-.71.31-1.11,0-.49-.17-.94-.44-1.31.46-.13.81-.54.81-1.05,0-.54-.4-.97-.91-1.07.33-.39.54-.88.54-1.43,0-1.22-.99-2.21-2.21-2.21-.66,0-1.24.29-1.64.74.08-.23.14-.48.14-.74,0-.19-.03-.37-.08-.55.19.31.53.54.92.54.61,0,1.11-.49,1.11-1.11s-.49-1.11-1.11-1.11-1.11.49-1.11,1.11c0,.06.02.11.03.16-.36-.74-1.11-1.26-1.99-1.26-.44,0-.84.13-1.18.35-.28-.32-.69-.52-1.14-.52-.84,0-1.53.68-1.53,1.53,0,.2.04.4.11.58-.37.14-.72.37-.98.71-.59.75-.61,1.75-.14,2.51-.39.17-.66.56-.66,1.01,0,.4.23.74.55.93-.32.19-.55.53-.55.93,0,.34.16.63.4.83-.31.38-.5.85-.5,1.38,0,.57.22,1.08.57,1.47-.08.16-.14.33-.14.51,0,.49.33.9.78,1.04,0,.02,0,.04,0,.07,0,.49.16.93.43,1.29-.31.2-.52.52-.52.92,0,.61.49,1.1,1.11,1.1.02,0,.04-.01.06-.01.09,1.14,1.03,2.04,2.19,2.04.6,0,1.14-.24,1.54-.63.4.42.97.69,1.6.69,1.06,0,1.95-.75,2.16-1.75.55-.11.98-.52,1.14-1.04.62-.39,1.04-1.08,1.04-1.87,0-.58-.23-1.11-.6-1.5.58-.04,1.04-.5,1.04-1.09Zm-2.65.38c-1.22,0-2.21.99-2.21,2.21,0,.08.02.16.02.24-.58.01-1.1.25-1.49.62-.21-.22-.46-.4-.74-.52.14-.25.24-.52.27-.81,0,0,.02,0,.03,0,.61,0,1.14-.36,1.38-.89.77-.13,1.4-.65,1.68-1.36.21.06.42.11.65.11.31,0,.61-.07.87-.18-.01.06-.04.12-.04.18,0,.17.04.32.11.46-.18-.05-.36-.08-.55-.08Zm-5.32-1.71s.04.02.05.03c-.02.12-.04.25-.04.37,0,.18.03.34.06.51-.07.08-.13.16-.18.24-.05-.02-.1-.04-.15-.06.16-.31.26-.65.26-1.02,0-.03,0-.05,0-.08Zm-2.11-3.98c.76.12,1.56-.16,2.07-.81.02-.02.03-.05.05-.08,0,.12.02.23.05.34-.78.46-1.32,1.3-1.32,2.28,0,.12.02.23.04.35-.27-.13-.57-.22-.89-.23,0,0,0,0,0,0,0-.4-.23-.74-.55-.93.32-.19.54-.52.54-.91Zm7.03.45c.15,0,.3-.02.44-.04-.03.11-.07.21-.07.33,0,.07.03.12.04.19-.13-.03-.27-.04-.41-.04-.35,0-.68.09-.97.24-.15-.61-.5-1.13-.99-1.5.03-.08.06-.16.07-.25.39.64,1.08,1.08,1.89,1.08Zm-2.07-2.95c-.07.2-.12.41-.13.63-.08-.1-.17-.19-.28-.27.15-.1.28-.23.4-.36Z"/><path class="cls-1" d="m400.85,12.03c0-.61-.49-1.11-1.11-1.11-.02,0-.03,0-.04,0,.19-.33.31-.71.31-1.11,0-.49-.17-.94-.44-1.31.46-.13.81-.54.81-1.05,0-.54-.4-.97-.91-1.07.33-.39.54-.88.54-1.43,0-1.22-.99-2.21-2.21-2.21-.66,0-1.24.29-1.64.74.08-.23.14-.48.14-.74,0-.19-.03-.37-.08-.55.19.31.53.54.92.54.61,0,1.11-.49,1.11-1.11s-.49-1.11-1.11-1.11-1.11.49-1.11,1.11c0,.06.02.11.03.16-.36-.74-1.11-1.26-1.99-1.26-.44,0-.84.13-1.18.35-.28-.32-.69-.52-1.14-.52-.84,0-1.53.68-1.53,1.53,0,.2.04.4.11.58-.37.14-.72.37-.98.71-.59.75-.61,1.75-.14,2.51-.39.17-.66.56-.66,1.01,0,.4.23.74.55.93-.32.19-.55.53-.55.93,0,.34.16.63.4.83-.31.38-.5.85-.5,1.38,0,.57.22,1.08.57,1.47-.08.16-.14.33-.14.51,0,.49.33.9.78,1.04,0,.02,0,.04,0,.07,0,.49.16.93.43,1.29-.31.2-.52.52-.52.92,0,.61.49,1.1,1.11,1.1.02,0,.04-.01.06-.01.09,1.14,1.03,2.04,2.19,2.04.6,0,1.14-.24,1.54-.63.4.42.97.69,1.6.69,1.06,0,1.95-.75,2.16-1.75.55-.11.98-.52,1.14-1.04.62-.39,1.04-1.08,1.04-1.87,0-.58-.23-1.11-.6-1.5.58-.04,1.04-.5,1.04-1.09Zm-2.65.38c-1.22,0-2.21.99-2.21,2.21,0,.08.02.16.02.24-.58.01-1.1.25-1.49.62-.21-.22-.46-.4-.74-.52.14-.25.24-.52.27-.81,0,0,.02,0,.03,0,.61,0,1.14-.36,1.38-.89.77-.13,1.4-.65,1.68-1.36.21.06.42.11.65.11.31,0,.61-.07.87-.18-.01.06-.04.12-.04.18,0,.17.04.32.11.46-.18-.05-.36-.08-.55-.08Zm-5.32-1.71s.04.02.05.03c-.02.12-.04.25-.04.37,0,.18.03.34.06.51-.07.08-.13.16-.18.24-.05-.02-.1-.04-.15-.06.16-.31.26-.65.26-1.02,0-.03,0-.05,0-.08Zm-2.11-3.98c.76.12,1.56-.16,2.07-.81.02-.02.03-.05.05-.08,0,.12.02.23.05.34-.78.46-1.32,1.3-1.32,2.28,0,.12.02.23.04.35-.27-.13-.57-.22-.89-.23,0,0,0,0,0,0,0-.4-.23-.74-.55-.93.32-.19.54-.52.54-.91Zm7.03.45c.15,0,.3-.02.44-.04-.03.11-.07.21-.07.33,0,.07.03.12.04.19-.13-.03-.27-.04-.41-.04-.35,0-.68.09-.97.24-.15-.61-.5-1.13-.99-1.5.03-.08.06-.16.07-.25.39.64,1.08,1.08,1.89,1.08Zm-2.07-2.95c-.07.2-.12.41-.13.63-.08-.1-.17-.19-.28-.27.15-.1.28-.23.4-.36Z"/><g><rect class="cls-1" x="761.36" y="11.62" width="5.14" height="3.87"/><rect class="cls-1" x="761.36" y="9.94" width="5.14" height="1.68"/><rect class="cls-1" x="768.22" y="11.62" width="5.14" height="3.87"/><rect class="cls-1" x="768.22" y="9.94" width="5.14" height="1.68"/><rect class="cls-1" x="775.08" y="11.62" width="5.14" height="3.87"/><rect class="cls-1" x="775.08" y="9.94" width="5.14" height="1.68"/><rect class="cls-1" x="781.94" y="11.62" width="5.14" height="3.87"/><rect class="cls-1" x="781.94" y="9.94" width="5.14" height="1.68"/><rect class="cls-1" x="788.8" y="11.62" width="5.14" height="3.87"/><rect class="cls-1" x="788.8" y="9.94" width="5.14" height="1.68"/></g><rect class="cls-1" x="815.35" y="15.49" width="36.94" height="3.87"/><rect class="cls-1" x="752.78" y="30.94" width="162.08" height="2.92"/><g><path class="cls-1" d="m818.44,7.6h1.54c.68,0,1.23.55,1.23,1.23v6.67h-3.99v-6.67c0-.68.55-1.23,1.23-1.23Z"/><rect class="cls-1" x="817.98" y="5.82" width="2.45" height="1.78"/><path class="cls-1" d="m824.28,7.6h1.54c.68,0,1.23.55,1.23,1.23v6.67h-3.99v-6.67c0-.68.55-1.23,1.23-1.23Z"/><rect class="cls-1" x="823.83" y="5.82" width="2.45" height="1.78"/><path class="cls-1" d="m830.13,7.6h1.54c.68,0,1.23.55,1.23,1.23v6.67h-3.99v-6.67c0-.68.55-1.23,1.23-1.23Z"/><rect class="cls-1" x="829.67" y="5.82" width="2.45" height="1.78"/><path class="cls-1" d="m835.97,7.6h1.54c.68,0,1.23.55,1.23,1.23v6.67h-3.99v-6.67c0-.68.55-1.23,1.23-1.23Z"/><rect class="cls-1" x="835.52" y="5.82" width="2.45" height="1.78"/><path class="cls-1" d="m841.82,7.6h1.54c.68,0,1.23.55,1.23,1.23v6.67h-3.99v-6.67c0-.68.55-1.23,1.23-1.23Z"/><rect class="cls-1" x="841.36" y="5.82" width="2.45" height="1.78"/><path class="cls-1" d="m847.66,7.6h1.54c.68,0,1.23.55,1.23,1.23v6.67h-3.99v-6.67c0-.68.55-1.23,1.23-1.23Z"/><rect class="cls-1" x="847.2" y="5.82" width="2.45" height="1.78"/></g><g><rect class="cls-1" x="873.59" y="11.62" width="5.14" height="3.87"/><rect class="cls-1" x="873.59" y="9.94" width="5.14" height="1.68"/><rect class="cls-1" x="880.45" y="11.62" width="5.14" height="3.87"/><rect class="cls-1" x="880.45" y="9.94" width="5.14" height="1.68"/><rect class="cls-1" x="887.31" y="11.62" width="5.14" height="3.87"/><rect class="cls-1" x="887.31" y="9.94" width="5.14" height="1.68"/><rect class="cls-1" x="894.17" y="11.62" width="5.14" height="3.87"/><rect class="cls-1" x="894.17" y="9.94" width="5.14" height="1.68"/><rect class="cls-1" x="901.03" y="11.62" width="5.14" height="3.87"/><rect class="cls-1" x="901.03" y="9.94" width="5.14" height="1.68"/></g><g><path class="cls-2" d="m682.18,12.35c0-4.33,2.02-7.84,7.01-7.84s7.01,3.51,7.01,7.84"/><path class="cls-2" d="m699.18,52.99h-19.98l.62-1.87c.25-.77.97-1.29,1.78-1.29h15.18c.81,0,1.53.52,1.78,1.29l.62,1.87Z"/><rect class="cls-2" x="680.24" y="42.78" width="17.9" height="2.54" rx=".77" ry=".77"/><path class="cls-2" d="m686.64,18.5h5.1c.83,0,1.5.67,1.5,1.5v.75h-8.1v-.75c0-.83.67-1.5,1.5-1.5Z"/><rect class="cls-2" x="676.76" y="36.71" width="24.86" height="6.06" rx="2.29" ry="2.29"/><rect class="cls-2" x="682.68" y="45.31" width="13.02" height="4.53"/><polyline class="cls-2" points="691.3 16.46 691.3 18.5 687.08 18.5 687.08 16.46"/><g><path class="cls-2" d="m694.84,31.01c0-.71.57-1.28,1.28-1.28h1.88l-.77-5.5c-.28-1.99-1.98-3.47-3.98-3.47h-8.1c-2.01,0-3.71,1.48-3.98,3.47l-.77,5.5h1.97c.71,0,1.28.57,1.28,1.28s-.57,1.28-1.28,1.28h-2.32l-.62,4.43h19.55l-.62-4.43h-2.23c-.71,0-1.28-.57-1.28-1.28Z"/><path class="cls-2" d="m680.39,29.73h-2.26c-.71,0-1.28.57-1.28,1.28s.57,1.28,1.28,1.28h1.9"/><path class="cls-2" d="m698.35,32.29h1.99c.71,0,1.28-.57,1.28-1.28s-.57-1.28-1.28-1.28h-2.35"/></g><ellipse class="cls-2" cx="689.19" cy="12.35" rx="7.01" ry="4.5"/><ellipse class="cls-2" cx="689.13" cy="12.62" rx="5.4" ry="2.84"/><path class="cls-2" d="m643.41,12.35c0-4.33,2.02-7.84,7.01-7.84s7.01,3.51,7.01,7.84"/><path class="cls-2" d="m660.41,52.99h-19.98l.62-1.87c.25-.77.97-1.29,1.78-1.29h15.18c.81,0,1.53.52,1.78,1.29l.62,1.87Z"/><rect class="cls-2" x="641.47" y="42.78" width="17.9" height="2.54" rx=".77" ry=".77"/><path class="cls-2" d="m647.86,18.5h5.1c.83,0,1.5.67,1.5,1.5v.75h-8.1v-.75c0-.83.67-1.5,1.5-1.5Z"/><rect class="cls-2" x="637.99" y="36.71" width="24.86" height="6.06" rx="2.29" ry="2.29"/><rect class="cls-2" x="643.9" y="45.31" width="13.02" height="4.53"/><polyline class="cls-2" points="652.52 16.46 652.52 18.5 648.31 18.5 648.31 16.46"/><g><path class="cls-2" d="m656.06,31.01c0-.71.57-1.28,1.28-1.28h1.88l-.77-5.5c-.28-1.99-1.98-3.47-3.98-3.47h-8.1c-2.01,0-3.71,1.48-3.98,3.47l-.77,5.5h1.97c.71,0,1.28.57,1.28,1.28s-.57,1.28-1.28,1.28h-2.32l-.62,4.43h19.55l-.62-4.43h-2.23c-.71,0-1.28-.57-1.28-1.28Z"/><path class="cls-2" d="m641.61,29.73h-2.26c-.71,0-1.28.57-1.28,1.28s.57,1.28,1.28,1.28h1.9"/><path class="cls-2" d="m659.57,32.29h1.99c.71,0,1.28-.57,1.28-1.28s-.57-1.28-1.28-1.28h-2.35"/></g><ellipse class="cls-2" cx="650.41" cy="12.35" rx="7.01" ry="4.5"/><ellipse class="cls-2" cx="650.36" cy="12.62" rx="5.4" ry="2.84"/><path class="cls-2" d="m604.63,12.35c0-4.33,2.02-7.84,7.01-7.84s7.01,3.51,7.01,7.84"/><path class="cls-2" d="m621.63,52.99h-19.98l.62-1.87c.25-.77.97-1.29,1.78-1.29h15.18c.81,0,1.53.52,1.78,1.29l.62,1.87Z"/><rect class="cls-2" x="602.69" y="42.78" width="17.9" height="2.54" rx=".77" ry=".77"/><path class="cls-2" d="m609.09,18.5h5.1c.83,0,1.5.67,1.5,1.5v.75h-8.1v-.75c0-.83.67-1.5,1.5-1.5Z"/><rect class="cls-2" x="599.21" y="36.71" width="24.86" height="6.06" rx="2.29" ry="2.29"/><rect class="cls-2" x="605.13" y="45.31" width="13.02" height="4.53"/><polyline class="cls-2" points="613.75 16.46 613.75 18.5 609.53 18.5 609.53 16.46"/><g><path class="cls-2" d="m617.29,31.01c0-.71.57-1.28,1.28-1.28h1.88l-.77-5.5c-.28-1.99-1.98-3.47-3.98-3.47h-8.1c-2.01,0-3.71,1.48-3.98,3.47l-.77,5.5h1.97c.71,0,1.28.57,1.28,1.28s-.57,1.28-1.28,1.28h-2.32l-.62,4.43h19.55l-.62-4.43h-2.23c-.71,0-1.28-.57-1.28-1.28Z"/><path class="cls-2" d="m602.84,29.73h-2.26c-.71,0-1.28.57-1.28,1.28s.57,1.28,1.28,1.28h1.9"/><path class="cls-2" d="m620.8,32.29h1.99c.71,0,1.28-.57,1.28-1.28s-.57-1.28-1.28-1.28h-2.35"/></g><ellipse class="cls-2" cx="611.64" cy="12.35" rx="7.01" ry="4.5"/><ellipse class="cls-2" cx="611.58" cy="12.62" rx="5.4" ry="2.84"/></g><rect class="cls-1" x="801.31" y="20.16" width="8.86" height="10.78"/><rect class="cls-1" x="857.48" y="20.16" width="8.86" height="10.78"/><rect class="cls-1" x="718.04" y="32.29" width="8.86" height="10.78"/><g><path class="cls-1" d="m721.84,43.07h-4.98v-7.69c0-.41-.33-.74-.74-.74s-.74.33-.74.74v17.62h1.49v-4.31c0-2.28,1.85-4.12,4.12-4.12h.86"/><path class="cls-1" d="m723.33,44.56h.63c2.28,0,4.12,1.85,4.12,4.12v4.31h1.49v-17.62c0-.41-.33-.74-.74-.74s-.74.33-.74.74v7.69h-4.75"/><path class="cls-1" d="m723.33,35.38c0-.41-.33-.74-.74-.74s-.74.33-.74.74v7.69h1.49v-7.69Z"/><rect class="cls-1" x="721.84" y="44.56" width="1.49" height="8.44"/></g><g><path class="cls-3" d="m717.73,29.09c-1.87-1.05-4-.83-4-.83,0,0,.94-.11,2.34,1.46s3.31,2.56,3.31,2.56h3.09"/><path class="cls-3" d="m722.47,32.29s2.43-.66,4.96-2.62,4-2.87,4-2.87c0,0-1.1,1.35-2.51,3.25s-3.17,2.23-3.17,2.23h-3.28Z"/><path class="cls-3" d="m723.16,32.05s-3.58-.35-5.76-1.95-3.67-1.85-3.67-1.85"/><path class="cls-3" d="m719.09,31.03s-3.32-4.46-3.29-7.1c0,0,2.2,5.44,5.65,7.83"/><path class="cls-3" d="m720.4,30.91s-.35-2.82.14-5.33c0,0,.91,1.82,2.07,2.95s1.45,3.15,1.45,3.15"/><path class="cls-3" d="m723.5,29.86s.96-1.68,3.08-2.86,2.45-4.25,2.45-4.25c0,0,.34,3.75-3.67,8.28"/><path class="cls-3" d="m727.02,28.86s3.29-2.37,4.42-2.06"/><path class="cls-3" d="m726.12,27.27s.91-3.86.66-5.82c0,0-2.92,3.31-3.89,5.98"/><path class="cls-3" d="m723.16,29.22s.17-4.63-5.34-7.77c0,0,1.32,1.98,1.43,3.89s1.03,3.39,1.03,3.39"/><path class="cls-3" d="m715.8,23.93s2.35,1.2,3.71,2.96"/><path class="cls-3" d="m721.16,24.21s-.09-1.49.15-2.57.28-2.01.28-2.01c0,0,.43,1.18.77,1.82.44.83.75,1.76.75,1.76"/><path class="cls-3" d="m722,25.41s.45-1.26,1.41-2.66,1.19-2.23,1.19-2.23c0,0,.09.64.26,1.52.19,1,0,1.88,0,1.88"/><path class="cls-3" d="m729.04,22.75s-.45.95-1.19,1.47c-1.22.87-1.39,1.37-1.39,1.37"/></g><g><rect class="cls-1" x="573.7" y="32.29" width="8.86" height="10.78"/><g><path class="cls-1" d="m577.5,43.07h-4.98v-7.69c0-.41-.33-.74-.74-.74s-.74.33-.74.74v17.62h1.49v-4.31c0-2.28,1.85-4.12,4.12-4.12h.86"/><path class="cls-1" d="m578.99,44.56h.63c2.28,0,4.12,1.85,4.12,4.12v4.31h1.49v-17.62c0-.41-.33-.74-.74-.74s-.74.33-.74.74v7.69h-4.75"/><path class="cls-1" d="m578.99,35.38c0-.41-.33-.74-.74-.74s-.74.33-.74.74v7.69h1.49v-7.69Z"/><rect class="cls-1" x="577.5" y="44.56" width="1.49" height="8.44"/></g><g><path class="cls-3" d="m573.39,29.09c-1.87-1.05-4-.83-4-.83,0,0,.94-.11,2.34,1.46s3.31,2.56,3.31,2.56h3.09"/><path class="cls-3" d="m578.14,32.29s2.43-.66,4.96-2.62,4-2.87,4-2.87c0,0-1.1,1.35-2.51,3.25s-3.17,2.23-3.17,2.23h-3.28Z"/><path class="cls-3" d="m578.82,32.05s-3.58-.35-5.76-1.95-3.67-1.85-3.67-1.85"/><path class="cls-3" d="m574.75,31.03s-3.32-4.46-3.29-7.1c0,0,2.2,5.44,5.65,7.83"/><path class="cls-3" d="m576.06,30.91s-.35-2.82.14-5.33c0,0,.91,1.82,2.07,2.95s1.45,3.15,1.45,3.15"/><path class="cls-3" d="m579.16,29.86s.96-1.68,3.08-2.86,2.45-4.25,2.45-4.25c0,0,.34,3.75-3.67,8.28"/><path class="cls-3" d="m582.68,28.86s3.29-2.37,4.42-2.06"/><path class="cls-3" d="m581.78,27.27s.91-3.86.66-5.82c0,0-2.92,3.31-3.89,5.98"/><path class="cls-3" d="m578.82,29.22s.17-4.63-5.34-7.77c0,0,1.32,1.98,1.43,3.89s1.03,3.39,1.03,3.39"/><path class="cls-3" d="m571.46,23.93s2.35,1.2,3.71,2.96"/><path class="cls-3" d="m576.82,24.21s-.09-1.49.15-2.57.28-2.01.28-2.01c0,0,.43,1.18.77,1.82.44.83.75,1.76.75,1.76"/><path class="cls-3" d="m577.66,25.41s.45-1.26,1.41-2.66,1.19-2.23,1.19-2.23c0,0,.09.64.26,1.52.19,1,0,1.88,0,1.88"/><path class="cls-3" d="m584.7,22.75s-.45.95-1.19,1.47c-1.22.87-1.39,1.37-1.39,1.37"/></g></g><path class="cls-1" d="m30.87,42.02v-18.54c0-.86.69-1.55,1.55-1.55h19.85c.86,0,1.55.69,1.55,1.55v18.54"/><line class="cls-1" x1="75.23" y1="42.02" x2="9.46" y2="42.02"/><g><rect class="cls-1" x="7.92" y="37.41" width="22.95" height="4.62" rx="1.53" ry="1.53"/><rect class="cls-1" x="30.87" y="37.41" width="22.95" height="4.62" rx="1.53" ry="1.53"/><rect class="cls-1" x="53.82" y="37.41" width="22.95" height="4.62" rx="1.53" ry="1.53"/></g><path class="cls-1" d="m5.26,31.18l-.31-1.49c-.11-.53-.58-.91-1.12-.91H1.52c-.63,0-1.14.51-1.14,1.14v16.47c0,.63.51,1.14,1.14,1.14h81.65c.63,0,1.14-.51,1.14-1.14v-16.47c0-.63-.51-1.14-1.14-1.14h-2.31c-.54,0-1.01.38-1.12.91l-.31,1.49"/><path class="cls-1" d="m30.87,23.48c0-.86-.69-1.55-1.55-1.55H7.08c-1,0-1.82.81-1.82,1.82v7.43l1.82,8.66c.27,1.27,1.39,2.18,2.69,2.18"/><path class="cls-1" d="m74.91,42.02c1.3,0,2.42-.91,2.69-2.18l1.82-8.66v-7.43c0-1-.81-1.82-1.82-1.82h-22.24c-.86,0-1.55.69-1.55,1.55"/><polygon class="cls-1" points="4.17 47.54 3.03 52.99 4.34 52.99 6.78 47.54 4.17 47.54"/><polygon class="cls-1" points="80.52 47.54 81.66 52.99 80.35 52.99 77.91 47.54 80.52 47.54"/><rect class="cls-1" x="759.18" y="15.49" width="36.94" height="3.87"/><rect class="cls-1" x="871.46" y="15.49" width="36.94" height="3.87"/><rect class="cls-1" x="754.96" y="33.86" width="26.29" height="19.13"/><rect class="cls-1" x="781.25" y="33.86" width="26.29" height="19.13"/><g><rect class="cls-1" x="771.03" y="36.37" width="7.68" height="1.71"/><rect class="cls-1" x="783.79" y="36.37" width="7.68" height="1.71" transform="translate(1575.25 74.45) rotate(-180)"/></g><rect class="cls-1" x="807.53" y="33.86" width="26.29" height="19.13"/><rect class="cls-1" x="833.82" y="33.86" width="26.29" height="19.13"/><g><rect class="cls-1" x="823.6" y="36.37" width="7.68" height="1.71"/><rect class="cls-1" x="836.36" y="36.37" width="7.68" height="1.71" transform="translate(1680.4 74.45) rotate(-180)"/></g><rect class="cls-1" x="860.11" y="33.86" width="26.29" height="19.13"/><rect class="cls-1" x="886.39" y="33.86" width="26.29" height="19.13"/><path class="cls-1" d="m965.5,42.02v-18.54c0-.86.69-1.55,1.55-1.55h19.85c.86,0,1.55.69,1.55,1.55v18.54"/><line class="cls-1" x1="1009.86" y1="42.02" x2="944.09" y2="42.02"/><g><rect class="cls-1" x="942.55" y="37.41" width="22.95" height="4.62" rx="1.53" ry="1.53"/><rect class="cls-1" x="965.5" y="37.41" width="22.95" height="4.62" rx="1.53" ry="1.53"/><rect class="cls-1" x="988.44" y="37.41" width="22.95" height="4.62" rx="1.53" ry="1.53"/></g><g><rect class="cls-1" x="876.17" y="36.37" width="7.68" height="1.71"/><rect class="cls-1" x="888.93" y="36.37" width="7.68" height="1.71" transform="translate(1785.54 74.45) rotate(-180)"/></g><path class="cls-1" d="m939.89,31.18l-.31-1.49c-.11-.53-.58-.91-1.12-.91h-2.31c-.63,0-1.14.51-1.14,1.14v16.47c0,.63.51,1.14,1.14,1.14h81.65c.63,0,1.14-.51,1.14-1.14v-16.47c0-.63-.51-1.14-1.14-1.14h-2.31c-.54,0-1.01.38-1.12.91l-.31,1.49"/><path class="cls-1" d="m965.5,23.48c0-.86-.69-1.55-1.55-1.55h-22.24c-1,0-1.82.81-1.82,1.82v7.43l1.82,8.66c.27,1.27,1.39,2.18,2.69,2.18"/><path class="cls-1" d="m1009.54,42.02c1.3,0,2.42-.91,2.69-2.18l1.82-8.66v-7.43c0-1-.81-1.82-1.82-1.82h-22.24c-.86,0-1.55.69-1.55,1.55"/><polygon class="cls-1" points="938.8 47.54 937.65 52.99 938.97 52.99 941.41 47.54 938.8 47.54"/><polygon class="cls-1" points="1015.14 47.54 1016.29 52.99 1014.97 52.99 1012.54 47.54 1015.14 47.54"/><path class="cls-1" d="m811.93,12.03c0-.61-.49-1.11-1.11-1.11-.02,0-.03,0-.04,0,.19-.33.31-.71.31-1.11,0-.49-.17-.94-.44-1.31.46-.13.81-.54.81-1.05,0-.54-.4-.97-.91-1.07.33-.39.54-.88.54-1.43,0-1.22-.99-2.21-2.21-2.21-.66,0-1.24.29-1.64.74.08-.23.14-.48.14-.74,0-.19-.03-.37-.08-.55.19.31.53.54.92.54.61,0,1.11-.49,1.11-1.11s-.49-1.11-1.11-1.11-1.11.49-1.11,1.11c0,.06.02.11.03.16-.36-.74-1.11-1.26-1.99-1.26-.44,0-.84.13-1.18.35-.28-.32-.69-.52-1.14-.52-.84,0-1.53.68-1.53,1.53,0,.2.04.4.11.58-.37.14-.72.37-.98.71-.59.75-.61,1.75-.14,2.51-.39.17-.66.56-.66,1.01,0,.4.23.74.55.93-.32.19-.55.53-.55.93,0,.34.16.63.4.83-.31.38-.5.85-.5,1.38,0,.57.22,1.08.57,1.47-.08.16-.14.33-.14.51,0,.49.33.9.78,1.04,0,.02,0,.04,0,.07,0,.49.16.93.43,1.29-.31.2-.52.52-.52.92,0,.61.49,1.1,1.11,1.1.02,0,.04-.01.06-.01.09,1.14,1.03,2.04,2.19,2.04.6,0,1.14-.24,1.54-.63.4.42.97.69,1.6.69,1.06,0,1.95-.75,2.16-1.75.55-.11.98-.52,1.14-1.04.62-.39,1.04-1.08,1.04-1.87,0-.58-.23-1.11-.6-1.5.58-.04,1.04-.5,1.04-1.09Zm-2.65.38c-1.22,0-2.21.99-2.21,2.21,0,.08.02.16.02.24-.58.01-1.1.25-1.49.62-.21-.22-.46-.4-.74-.52.14-.25.24-.52.27-.81,0,0,.02,0,.03,0,.61,0,1.14-.36,1.38-.89.77-.13,1.4-.65,1.68-1.36.21.06.42.11.65.11.31,0,.61-.07.87-.18-.01.06-.04.12-.04.18,0,.17.04.32.11.46-.18-.05-.36-.08-.55-.08Zm-5.32-1.71s.04.02.05.03c-.02.12-.04.25-.04.37,0,.18.03.34.06.51-.07.08-.13.16-.18.24-.05-.02-.1-.04-.15-.06.16-.31.26-.65.26-1.02,0-.03,0-.05,0-.08Zm-2.11-3.98c.76.12,1.56-.16,2.07-.81.02-.02.03-.05.05-.08,0,.12.02.23.05.34-.78.46-1.32,1.3-1.32,2.28,0,.12.02.23.04.35-.27-.13-.57-.22-.89-.23,0,0,0,0,0,0,0-.4-.23-.74-.55-.93.32-.19.54-.52.54-.91Zm7.03.45c.15,0,.3-.02.44-.04-.03.11-.07.21-.07.33,0,.07.03.12.04.19-.13-.03-.27-.04-.41-.04-.35,0-.68.09-.97.24-.15-.61-.5-1.13-.99-1.5.03-.08.06-.16.07-.25.39.64,1.08,1.08,1.89,1.08Zm-2.07-2.95c-.07.2-.12.41-.13.63-.08-.1-.17-.19-.28-.27.15-.1.28-.23.4-.36Z"/><path class="cls-1" d="m868.16,12.03c0-.61-.49-1.11-1.11-1.11-.02,0-.03,0-.04,0,.19-.33.31-.71.31-1.11,0-.49-.17-.94-.44-1.31.46-.13.81-.54.81-1.05,0-.54-.4-.97-.91-1.07.33-.39.54-.88.54-1.43,0-1.22-.99-2.21-2.21-2.21-.66,0-1.24.29-1.64.74.08-.23.14-.48.14-.74,0-.19-.03-.37-.08-.55.19.31.53.54.92.54.61,0,1.11-.49,1.11-1.11s-.49-1.11-1.11-1.11-1.11.49-1.11,1.11c0,.06.02.11.03.16-.36-.74-1.11-1.26-1.99-1.26-.44,0-.84.13-1.18.35-.28-.32-.69-.52-1.14-.52-.84,0-1.53.68-1.53,1.53,0,.2.04.4.11.58-.37.14-.72.37-.98.71-.59.75-.61,1.75-.14,2.51-.39.17-.66.56-.66,1.01,0,.4.23.74.55.93-.32.19-.55.53-.55.93,0,.34.16.63.4.83-.31.38-.5.85-.5,1.38,0,.57.22,1.08.57,1.47-.08.16-.14.33-.14.51,0,.49.33.9.78,1.04,0,.02,0,.04,0,.07,0,.49.16.93.43,1.29-.31.2-.52.52-.52.92,0,.61.49,1.1,1.11,1.1.02,0,.04-.01.06-.01.09,1.14,1.03,2.04,2.19,2.04.6,0,1.14-.24,1.54-.63.4.42.97.69,1.6.69,1.06,0,1.95-.75,2.16-1.75.55-.11.98-.52,1.14-1.04.62-.39,1.04-1.08,1.04-1.87,0-.58-.23-1.11-.6-1.5.58-.04,1.04-.5,1.04-1.09Zm-2.65.38c-1.22,0-2.21.99-2.21,2.21,0,.08.02.16.02.24-.58.01-1.1.25-1.49.62-.21-.22-.46-.4-.74-.52.14-.25.24-.52.27-.81,0,0,.02,0,.03,0,.61,0,1.14-.36,1.38-.89.77-.13,1.4-.65,1.68-1.36.21.06.42.11.65.11.31,0,.61-.07.87-.18-.01.06-.04.12-.04.18,0,.17.04.32.11.46-.18-.05-.36-.08-.55-.08Zm-5.32-1.71s.04.02.05.03c-.02.12-.04.25-.04.37,0,.18.03.34.06.51-.07.08-.13.16-.18.24-.05-.02-.1-.04-.15-.06.16-.31.26-.65.26-1.02,0-.03,0-.05,0-.08Zm-2.11-3.98c.76.12,1.56-.16,2.07-.81.02-.02.03-.05.05-.08,0,.12.02.23.05.34-.78.46-1.32,1.3-1.32,2.28,0,.12.02.23.04.35-.27-.13-.57-.22-.89-.23,0,0,0,0,0,0,0-.4-.23-.74-.55-.93.32-.19.54-.52.54-.91Zm7.03.45c.15,0,.3-.02.44-.04-.03.11-.07.21-.07.33,0,.07.03.12.04.19-.13-.03-.27-.04-.41-.04-.35,0-.68.09-.97.24-.15-.61-.5-1.13-.99-1.5.03-.08.06-.16.07-.25.39.64,1.08,1.08,1.89,1.08Zm-2.07-2.95c-.07.2-.12.41-.13.63-.08-.1-.17-.19-.28-.27.15-.1.28-.23.4-.36Z"/></g></svg>